<svg xmlns="http://www.w3.org/2000/svg" xmlns:xlink="http://www.w3.org/1999/xlink" version="1.1" width="256" height="256" viewBox="0 0 256 256" xml:space="preserve">

<defs>
</defs>
<g style="stroke: none; stroke-width: 0; stroke-dasharray: none; stroke-linecap: butt; stroke-linejoin: miter; stroke-miterlimit: 10; fill: none; fill-rule: nonzero; opacity: 1;" transform="translate(1.4065934065934016 1.4065934065934016) scale(2.81 2.81)" >
	<path d="M 61.813 46.968 h -0.408 c -0.85 0 -1.661 0.172 -2.399 0.482 c -0.679 -2.694 -3.122 -4.693 -6.023 -4.693 h -0.408 c -0.994 0 -1.935 0.235 -2.769 0.652 c -0.979 -2.146 -3.146 -3.641 -5.654 -3.641 h -0.409 c -0.778 0 -1.524 0.144 -2.211 0.407 v -8.391 c 0 -3.425 -2.787 -6.211 -6.211 -6.211 h -0.408 c -3.425 0 -6.211 2.786 -6.211 6.211 v 22.09 l -2.679 2.034 c -2.225 1.689 -3.636 4.147 -3.972 6.922 c -0.336 2.773 0.446 5.497 2.203 7.669 l 8.534 10.55 v 4.152 c 0 2.646 2.153 4.799 4.799 4.799 h 21.399 c 2.646 0 4.799 -2.152 4.799 -4.799 l 0.001 -3.939 c 2.739 -3.464 4.239 -7.754 4.239 -12.164 V 53.179 C 68.024 49.754 65.238 46.968 61.813 46.968 z M 64.024 69.098 c 0 3.709 -1.335 7.313 -3.76 10.147 c -0.311 0.362 -0.48 0.823 -0.48 1.3 v 4.656 c 0 0.44 -0.358 0.799 -0.799 0.799 H 37.586 c -0.44 0 -0.799 -0.358 -0.799 -0.799 v -4.86 c 0 -0.458 -0.157 -0.901 -0.445 -1.258 l -8.979 -11.1 c -1.07 -1.323 -1.547 -2.982 -1.342 -4.673 c 0.205 -1.689 1.064 -3.188 2.42 -4.217 l 0.26 -0.197 v 4.677 c 0 1.104 0.896 2 2 2 s 2 -0.896 2 -2 v -8.687 c 0 -0.015 0 -0.028 0 -0.042 V 31.784 c 0 -1.219 0.992 -2.211 2.211 -2.211 h 0.408 c 1.219 0 2.211 0.992 2.211 2.211 v 14.195 c 0 0 0 0 0 0.001 s 0 0 0 0.001 l 0.009 11.807 c 0.001 1.104 0.896 1.998 2 1.998 c 0 0 0.001 0 0.001 0 c 1.104 -0.001 2 -0.896 1.999 -2.002 l -0.009 -11.805 c 0 -1.219 0.992 -2.211 2.211 -2.211 h 0.409 c 1.219 0 2.211 0.992 2.211 2.211 v 2.988 c 0 0 0 0.001 0 0.001 c 0 0 0 0.001 0 0.001 l 0.009 8.818 c 0.001 1.104 0.896 1.998 2 1.998 c 0.001 0 0.001 0 0.002 0 c 1.104 -0.001 1.999 -0.897 1.998 -2.002 l -0.009 -8.816 c 0 -1.219 0.992 -2.211 2.211 -2.211 h 0.408 c 1.219 0 2.211 0.992 2.211 2.211 v 3.749 c -0.005 0.056 -0.017 0.11 -0.017 0.167 l 0.008 4.905 c 0.002 1.104 0.896 1.997 2 1.997 c 0.001 0 0.002 0 0.003 0 c 1.104 -0.002 1.999 -0.898 1.997 -2.003 l -0.007 -4.447 c 0.004 -0.053 0.016 -0.104 0.016 -0.157 c 0 -1.219 0.992 -2.211 2.212 -2.211 h 0.408 c 1.219 0 2.211 0.992 2.211 2.211 V 69.098 z" style="stroke: none; stroke-width: 1; stroke-dasharray: none; stroke-linecap: butt; stroke-linejoin: miter; stroke-miterlimit: 10; fill: rgb(0,0,0); fill-rule: nonzero; opacity: 1;" transform=" matrix(1 0 0 1 0 0) " stroke-linecap="round" />
	<path d="M 78.356 0 H 11.644 c -1.104 0 -2 0.896 -2 2 v 49.063 c 0 1.104 0.896 2 2 2 h 8.97 c 1.104 0 2 -0.896 2 -2 s -0.896 -2 -2 -2 h -6.97 V 15.904 h 62.713 v 33.158 h -2.862 c -1.104 0 -2 0.896 -2 2 s 0.896 2 2 2 h 4.862 c 1.104 0 2 -0.896 2 -2 V 2 C 80.356 0.896 79.461 0 78.356 0 z M 13.644 4 h 8.845 v 7.904 h -8.845 V 4 z M 26.489 11.904 V 4 h 49.868 v 7.904 H 26.489 z" style="stroke: none; stroke-width: 1; stroke-dasharray: none; stroke-linecap: butt; stroke-linejoin: miter; stroke-miterlimit: 10; fill: rgb(0,0,0); fill-rule: nonzero; opacity: 1;" transform=" matrix(1 0 0 1 0 0) " stroke-linecap="round" />
</g>
</svg>