<svg xmlns="http://www.w3.org/2000/svg" xmlns:xlink="http://www.w3.org/1999/xlink" version="1.1" width="256" height="256" viewBox="0 0 256 256" xml:space="preserve">

<defs>
</defs>
<g style="stroke: none; stroke-width: 0; stroke-dasharray: none; stroke-linecap: butt; stroke-linejoin: miter; stroke-miterlimit: 10; fill: none; fill-rule: nonzero; opacity: 1;" transform="translate(1.4065934065934016 1.4065934065934016) scale(2.81 2.81)" >
	<path d="M 54.361 90 H 35.639 c -6.167 0 -11.185 -5.018 -11.185 -11.185 v -46.63 C 24.454 26.018 29.472 21 35.639 21 h 18.723 c 6.167 0 11.185 5.018 11.185 11.185 v 46.63 C 65.546 84.982 60.528 90 54.361 90 z M 35.639 25 c -3.961 0 -7.185 3.223 -7.185 7.185 v 46.63 c 0 3.962 3.223 7.185 7.185 7.185 h 18.723 c 3.962 0 7.185 -3.223 7.185 -7.185 v -46.63 c 0 -3.962 -3.223 -7.185 -7.185 -7.185 H 35.639 z" style="stroke: none; stroke-width: 1; stroke-dasharray: none; stroke-linecap: butt; stroke-linejoin: miter; stroke-miterlimit: 10; fill: rgb(0,0,0); fill-rule: nonzero; opacity: 1;" transform=" matrix(1 0 0 1 0 0) " stroke-linecap="round" />
	<path d="M 41.317 45.243 h -6.183 c -1.104 0 -2 -0.896 -2 -2 s 0.896 -2 2 -2 h 6.183 c 1.104 0 2 0.896 2 2 S 42.421 45.243 41.317 45.243 z" style="stroke: none; stroke-width: 1; stroke-dasharray: none; stroke-linecap: butt; stroke-linejoin: miter; stroke-miterlimit: 10; fill: rgb(0,0,0); fill-rule: nonzero; opacity: 1;" transform=" matrix(1 0 0 1 0 0) " stroke-linecap="round" />
	<path d="M 54.866 45.243 h -6.183 c -1.104 0 -2 -0.896 -2 -2 s 0.896 -2 2 -2 h 6.183 c 1.104 0 2 0.896 2 2 S 55.971 45.243 54.866 45.243 z" style="stroke: none; stroke-width: 1; stroke-dasharray: none; stroke-linecap: butt; stroke-linejoin: miter; stroke-miterlimit: 10; fill: rgb(0,0,0); fill-rule: nonzero; opacity: 1;" transform=" matrix(1 0 0 1 0 0) " stroke-linecap="round" />
	<path d="M 41.317 57.5 h -6.183 c -1.104 0 -2 -0.896 -2 -2 s 0.896 -2 2 -2 h 6.183 c 1.104 0 2 0.896 2 2 S 42.421 57.5 41.317 57.5 z" style="stroke: none; stroke-width: 1; stroke-dasharray: none; stroke-linecap: butt; stroke-linejoin: miter; stroke-miterlimit: 10; fill: rgb(0,0,0); fill-rule: nonzero; opacity: 1;" transform=" matrix(1 0 0 1 0 0) " stroke-linecap="round" />
	<path d="M 54.866 57.5 h -6.183 c -1.104 0 -2 -0.896 -2 -2 s 0.896 -2 2 -2 h 6.183 c 1.104 0 2 0.896 2 2 S 55.971 57.5 54.866 57.5 z" style="stroke: none; stroke-width: 1; stroke-dasharray: none; stroke-linecap: butt; stroke-linejoin: miter; stroke-miterlimit: 10; fill: rgb(0,0,0); fill-rule: nonzero; opacity: 1;" transform=" matrix(1 0 0 1 0 0) " stroke-linecap="round" />
	<path d="M 41.317 69.758 h -6.183 c -1.104 0 -2 -0.896 -2 -2 s 0.896 -2 2 -2 h 6.183 c 1.104 0 2 0.896 2 2 S 42.421 69.758 41.317 69.758 z" style="stroke: none; stroke-width: 1; stroke-dasharray: none; stroke-linecap: butt; stroke-linejoin: miter; stroke-miterlimit: 10; fill: rgb(0,0,0); fill-rule: nonzero; opacity: 1;" transform=" matrix(1 0 0 1 0 0) " stroke-linecap="round" />
	<path d="M 54.866 69.758 h -6.183 c -1.104 0 -2 -0.896 -2 -2 s 0.896 -2 2 -2 h 6.183 c 1.104 0 2 0.896 2 2 S 55.971 69.758 54.866 69.758 z" style="stroke: none; stroke-width: 1; stroke-dasharray: none; stroke-linecap: butt; stroke-linejoin: miter; stroke-miterlimit: 10; fill: rgb(0,0,0); fill-rule: nonzero; opacity: 1;" transform=" matrix(1 0 0 1 0 0) " stroke-linecap="round" />
	<path d="M 50.522 16.887 c -0.716 0 -1.408 -0.385 -1.768 -1.062 c -0.749 -1.407 -2.202 -2.282 -3.794 -2.282 s -3.046 0.875 -3.795 2.282 c -0.518 0.976 -1.729 1.345 -2.705 0.827 c -0.975 -0.519 -1.346 -1.729 -0.827 -2.705 c 1.444 -2.716 4.251 -4.404 7.326 -4.404 s 5.881 1.688 7.326 4.404 c 0.519 0.975 0.148 2.186 -0.826 2.705 C 51.16 16.812 50.839 16.887 50.522 16.887 z" style="stroke: none; stroke-width: 1; stroke-dasharray: none; stroke-linecap: butt; stroke-linejoin: miter; stroke-miterlimit: 10; fill: rgb(0,0,0); fill-rule: nonzero; opacity: 1;" transform=" matrix(1 0 0 1 0 0) " stroke-linecap="round" />
	<path d="M 61.644 14.029 c -0.716 0 -1.408 -0.385 -1.768 -1.062 C 56.934 7.436 51.219 4 44.96 4 c -6.196 0 -11.884 3.386 -14.845 8.836 c -0.527 0.971 -1.741 1.332 -2.712 0.803 c -0.971 -0.527 -1.33 -1.741 -0.803 -2.712 C 30.262 4.187 37.297 0 44.96 0 c 7.741 0 14.809 4.249 18.447 11.089 c 0.519 0.975 0.148 2.186 -0.826 2.705 C 62.281 13.953 61.96 14.029 61.644 14.029 z" style="stroke: none; stroke-width: 1; stroke-dasharray: none; stroke-linecap: butt; stroke-linejoin: miter; stroke-miterlimit: 10; fill: rgb(0,0,0); fill-rule: nonzero; opacity: 1;" transform=" matrix(1 0 0 1 0 0) " stroke-linecap="round" />
</g>
</svg>